<svg width="800" height="600" xmlns="http://www.w3.org/2000/svg">

 <g>
  <title>Layer 1</title>
  <path stroke-width="20" d="m12.95563,148.33164c4.32238,0 12.96713,0 25.93425,0c21.61188,0 47.31582,-2.40822 77.80276,-4.82867c43.115,-3.42301 95.11462,-1.702 146.96076,0c73.57562,2.41537 151.28314,4.82867 216.11877,9.65733c64.83563,4.82867 125.33293,5.02841 172.89502,9.65733c51.85188,5.04646 91.28037,6.64133 121.02651,14.486c13.30297,3.50825 17.57416,5.52538 8.64475,9.65733c-25.25624,11.68684 -64.48212,22.37407 -121.02651,28.972c-77.50108,9.04329 -159.92789,9.65733 -246.3754,9.65733c-103.73701,0 -194.84069,-4.35785 -267.98727,4.82867c-52.2548,6.56272 -92.06094,13.62203 -99.41463,28.972c-4.07907,8.51464 12.57839,20.98948 43.22375,28.972c47.06321,12.25911 103.71406,19.71563 168.57264,24.14334c77.77769,5.30965 159.92789,9.65733 237.73065,9.65733c77.80276,0 142.74945,3.23328 207.47402,9.65733c38.98725,3.86958 56.47554,10.35405 47.54613,14.486c-25.25624,11.68684 -73.41561,19.87419 -138.31601,28.972c-73.41139,10.29091 -155.50249,15.27541 -242.05302,28.972c-64.76282,10.24869 -124.66745,21.53478 -159.92789,33.80067c-17.01573,5.9192 -17.6727,11.21035 -4.32238,14.486c38.22957,9.38015 99.41463,4.82867 164.25026,4.82867l82.12513,0l21.61188,0" id="svg_9" stroke="#000" fill="none"/>
 </g>
</svg>