<svg width="800" height="600" xmlns="http://www.w3.org/2000/svg">
 <g>
  <title>Layer 1</title>
  <path fill="none" stroke="#000" id="svg_9" d="m12.95563,236.38276c4.32238,0 12.96713,0 25.93425,0c21.61188,0 47.31582,-1.01013 77.80276,-2.02538c43.115,-1.43578 95.11462,-0.7139 146.96076,0c73.57562,1.01313 151.28314,2.02538 216.11877,4.05076c64.83563,2.02538 125.33293,2.10917 172.89502,4.05076c51.85188,2.11674 91.28037,2.7857 121.02651,6.07615c13.30297,1.47153 17.57416,2.31762 8.64475,4.05076c-25.25624,4.90204 -64.48212,9.3848 -121.02651,12.1523c-77.50108,3.79321 -159.92789,4.05076 -246.3754,4.05076c-103.73701,0 -194.84069,-1.8279 -267.98727,2.02538c-52.2548,2.75273 -92.06094,5.71376 -99.41463,12.1523c-4.07907,3.57146 12.57839,8.80403 43.22375,12.1523c47.06321,5.14208 103.71406,8.26972 168.57264,10.12692c77.77769,2.22713 159.92789,4.05076 237.73065,4.05076c77.80276,0 142.74945,1.3562 207.47402,4.05076c38.98725,1.62309 56.47554,4.343 47.54613,6.07615c-25.25624,4.90204 -73.41561,8.33622 -138.31601,12.1523c-73.41139,4.31652 -155.50249,6.40727 -242.05302,12.1523c-64.76282,4.29881 -124.66745,9.03276 -159.92789,14.17768c-17.01573,2.48281 -17.6727,4.70218 -4.32238,6.07615c38.22957,3.9345 99.41463,2.02538 164.25026,2.02538l82.12513,0l21.61188,0" stroke-width="20"/>
 </g>

</svg>